<svg width="24" height="17" viewBox="0 0 24 17" fill="none" xmlns="http://www.w3.org/2000/svg">
<path d="M5.4043 10.6055C5.01172 10.7109 4.65723 10.7373 4.34082 10.6846C4.03027 10.6318 3.7666 10.4854 3.5498 10.2451L0.473633 6.78223C0.391602 6.69434 0.350586 6.5918 0.350586 6.47461C0.356445 6.35742 0.40918 6.25488 0.508789 6.16699L0.772461 5.9209C0.895508 5.80957 1.01562 5.74219 1.13281 5.71875C1.25586 5.68945 1.38477 5.69824 1.51953 5.74512L7.03906 7.70508L4.57812 7.62598L9.43848 5.95605L9.22754 7.02832L4.1123 1.5791C4.00098 1.46777 3.95996 1.34766 3.98926 1.21875C4.01855 1.08984 4.09473 1.00488 4.21777 0.963867L4.83301 0.779297C5.09668 0.703125 5.36035 0.723633 5.62402 0.84082L12.9805 4.3125C13.1855 4.41211 13.3613 4.46777 13.5078 4.47949C13.6602 4.48535 13.8271 4.45898 14.0088 4.40039L19.3262 2.58105C19.8418 2.40527 20.3574 2.32324 20.873 2.33496C21.3945 2.34668 21.8486 2.45215 22.2354 2.65137C22.6279 2.85059 22.8975 3.14648 23.0439 3.53906C23.1963 3.96094 23.1758 4.37695 22.9824 4.78711C22.7891 5.19141 22.4727 5.55176 22.0332 5.86816C21.5938 6.18457 21.0811 6.42188 20.4951 6.58008L5.4043 10.6055ZM2.11719 16.6787C1.88281 16.6787 1.68066 16.5908 1.51074 16.415C1.34082 16.2451 1.25586 16.043 1.25586 15.8086C1.25586 15.5684 1.34082 15.3633 1.51074 15.1934C1.68066 15.0293 1.88281 14.9473 2.11719 14.9473H21.1631C21.4033 14.9473 21.6084 15.0293 21.7783 15.1934C21.9482 15.3633 22.0332 15.5684 22.0332 15.8086C22.0332 16.043 21.9482 16.2451 21.7783 16.415C21.6084 16.5908 21.4033 16.6787 21.1631 16.6787H2.11719Z" fill="#F036C7"/>
</svg>
