<svg width="17" height="21" viewBox="0 0 17 21" fill="none" xmlns="http://www.w3.org/2000/svg">
<path d="M3.67871 20.6035C3.12793 20.6035 2.62695 20.4688 2.17578 20.1992C1.72461 19.9297 1.36426 19.5664 1.09473 19.1094C0.825195 18.6582 0.69043 18.1572 0.69043 17.6064C0.69043 17.0615 0.825195 16.5635 1.09473 16.1123C1.36426 15.6553 1.72461 15.2949 2.17578 15.0312C2.62695 14.7617 3.12793 14.627 3.67871 14.627C4.22949 14.627 4.73047 14.7617 5.18164 15.0312C5.63281 15.2949 5.99316 15.6553 6.2627 16.1123C6.53223 16.5635 6.66699 17.0615 6.66699 17.6064C6.66699 18.1572 6.53223 18.6582 6.2627 19.1094C5.99316 19.5664 5.63281 19.9297 5.18164 20.1992C4.73047 20.4688 4.22949 20.6035 3.67871 20.6035ZM13.8125 6.69043C13.2617 6.69043 12.7607 6.55566 12.3096 6.28613C11.8584 6.0166 11.498 5.65625 11.2285 5.20508C10.959 4.74805 10.8242 4.24414 10.8242 3.69336C10.8242 3.14258 10.959 2.6416 11.2285 2.19043C11.498 1.73926 11.8584 1.38184 12.3096 1.11816C12.7607 0.848633 13.2617 0.713867 13.8125 0.713867C14.3633 0.713867 14.8643 0.848633 15.3154 1.11816C15.7725 1.38184 16.1357 1.73926 16.4053 2.19043C16.6748 2.6416 16.8096 3.14258 16.8096 3.69336C16.8096 4.24414 16.6748 4.74805 16.4053 5.20508C16.1357 5.65625 15.7725 6.0166 15.3154 6.28613C14.8643 6.55566 14.3633 6.69043 13.8125 6.69043ZM6.07812 11.3135C4.30273 11.1377 2.95801 10.6572 2.04395 9.87207C1.13574 9.08105 0.681641 8.05566 0.681641 6.7959C0.681641 5.97559 0.880859 5.26367 1.2793 4.66016C1.67773 4.05664 2.2373 3.59082 2.95801 3.2627C3.68457 2.93457 4.54297 2.77051 5.5332 2.77051H11.4395V4.50195H5.5332C4.55469 4.50195 3.79004 4.70703 3.23926 5.11719C2.68848 5.52734 2.41309 6.08691 2.41309 6.7959C2.41309 7.5166 2.73535 8.1084 3.37988 8.57129C4.02441 9.03418 5.01172 9.33594 6.3418 9.47656L11.3955 10.0039C13.1768 10.1797 14.5244 10.6631 15.4385 11.4541C16.3525 12.2393 16.8096 13.2617 16.8096 14.5215C16.8096 15.3418 16.6104 16.0537 16.2119 16.6572C15.8135 17.2607 15.248 17.7266 14.5156 18.0547C13.7891 18.3828 12.9336 18.5469 11.9492 18.5469H6.05176V16.8154H11.9492C12.9277 16.8154 13.6924 16.6104 14.2432 16.2002C14.7998 15.79 15.0781 15.2305 15.0781 14.5215C15.0781 13.8008 14.7559 13.209 14.1113 12.7461C13.4668 12.2832 12.4795 11.9814 11.1494 11.8408L6.07812 11.3135Z" fill="#F036C7"/>
</svg>
